<svg width="1461" height="1379" viewBox="0 0 1461 1379" fill="none" xmlns="http://www.w3.org/2000/svg">
<path d="M681.935 1378.41C1058.56 1378.41 1363.87 1069.9 1363.87 689.337C1363.87 308.773 1058.56 0.265625 681.935 0.265625C305.313 0.265625 0 308.773 0 689.337C0 1069.9 305.313 1378.41 681.935 1378.41Z" fill="#B5F2C3"/>
<path d="M1433.87 296.193C1364.2 158.379 1108.64 140.993 815.299 256.757C731.369 153.291 603.375 113.43 508.953 168.556C476.22 187.638 451.041 216.049 434.255 250.397C380.539 240.644 326.824 247.852 279.823 274.991C169.874 339.446 135.043 492.95 189.178 638.397C143.436 701.155 120.775 766.882 135.043 827.944C154.347 910.633 232.822 971.695 346.128 1006.04C294.93 1063.71 253.805 1132.41 229.045 1204.92C425.023 1383.87 713.743 1426.27 954.204 1321.53C864.818 1184.14 765.78 1092.12 623.938 1037C632.75 1036.57 791.379 1016.22 864.398 999.682C1217.33 917.842 1456.11 721.509 1434.71 522.633C1434.29 522.209 1492.62 411.957 1433.87 296.193Z" fill="url(#paint0_linear_1_34)"/>
<path d="M1202.64 1134.22C1140.95 1059.59 1066.67 1003.61 988.196 965.45C1276.92 875.976 1462.82 686.429 1434.29 522.324C1299.16 699.15 720.039 921.773 322.208 755.124C305.842 875.976 388.933 952.304 510.632 1009.55C691.922 1094.78 807.326 1191.47 894.614 1344.54C1015.89 1303.84 1122.9 1229.63 1202.64 1134.22Z" fill="url(#paint1_linear_1_34)"/>
<path d="M770.521 275.433C735.69 208.858 654.697 180.871 586.294 213.098C518.31 245.326 487.256 325.47 514.953 395.013C598.883 350.488 689.948 308.508 770.521 275.433Z" fill="#F0F0F0"/>
<path d="M674.753 316.569C644.119 258.899 589.984 227.52 550.117 246.178C537.527 252.115 528.295 261.868 521.58 275.013C521.161 276.285 520.321 277.133 519.902 278.405C502.276 313.601 499.339 356.005 514.866 395.017C566.903 367.454 621.457 340.74 674.753 316.569Z" fill="black"/>
<path d="M549.723 377.3C504.401 310.301 416.693 284.435 341.576 319.63C258.065 359.067 221.975 459.141 261.002 543.526C263.101 547.766 265.199 551.582 267.297 555.823C327.727 500.273 435.158 435.818 549.723 377.3Z" fill="#F0F0F0"/>
<path d="M442.702 435.004C405.772 371.398 344.503 337.898 299.181 359.1C284.493 365.885 273.162 377.758 265.189 393.024C264.35 394.296 263.93 395.568 263.091 396.84C241.269 441.365 238.751 494.794 260.993 543.56C263.091 547.8 265.189 551.616 267.287 555.857C308.413 518.117 370.941 476.137 442.702 435.004Z" fill="black"/>
<defs>
<linearGradient id="paint0_linear_1_34" x1="134.769" y1="767.303" x2="1493.54" y2="760.861" gradientUnits="userSpaceOnUse">
<stop stop-color="#279B53"/>
<stop offset="1" stop-color="#39E674"/>
</linearGradient>
<linearGradient id="paint1_linear_1_34" x1="320.156" y1="933.294" x2="1327.64" y2="933.294" gradientUnits="userSpaceOnUse">
<stop stop-color="#5EDF60"/>
<stop offset="1" stop-color="#84EE60"/>
</linearGradient>
</defs>
</svg>
