<svg width="1461" height="1379" viewBox="0 0 1461 1379" fill="none" xmlns="http://www.w3.org/2000/svg">
<path d="M682.835 1378.41C1059.46 1378.41 1364.77 1069.9 1364.77 689.337C1364.77 308.773 1059.46 0.265625 682.835 0.265625C306.213 0.265625 0.900391 308.773 0.900391 689.337C0.900391 1069.9 306.213 1378.41 682.835 1378.41Z" fill="white"/>
<path d="M1434.77 296.193C1365.1 158.379 1109.54 140.993 816.2 256.757C732.269 153.291 604.275 113.43 509.853 168.556C477.121 187.638 451.941 216.049 435.155 250.397C381.44 240.644 327.724 247.852 280.723 274.991C170.774 339.446 135.943 492.95 190.078 638.397C144.336 701.155 121.675 766.882 135.943 827.944C155.247 910.633 233.722 971.695 347.028 1006.04C295.831 1063.71 254.705 1132.41 229.945 1204.92C425.923 1383.87 714.644 1426.27 955.104 1321.53C865.718 1184.14 766.681 1092.12 624.838 1037C633.651 1036.57 792.279 1016.22 865.299 999.682C1218.23 917.842 1457.01 721.509 1435.61 522.633C1435.19 522.209 1493.52 411.957 1434.77 296.193Z" fill="url(#paint0_linear_1_35)"/>
<path d="M1203.54 1134.22C1141.85 1059.59 1067.57 1003.61 989.097 965.45C1277.82 875.976 1463.72 686.429 1435.19 522.324C1300.06 699.15 720.939 921.773 323.109 755.124C306.742 875.976 389.834 952.304 511.533 1009.55C692.822 1094.78 808.227 1191.47 895.514 1344.54C1016.79 1303.84 1123.81 1229.63 1203.54 1134.22Z" fill="url(#paint1_linear_1_35)"/>
<path d="M771.421 275.433C736.59 208.858 655.597 180.871 587.194 213.098C519.21 245.326 488.156 325.47 515.853 395.013C599.784 350.488 690.848 308.508 771.421 275.433Z" fill="#F0F0F0"/>
<path d="M675.654 316.569C645.019 258.899 590.884 227.52 551.017 246.178C538.427 252.115 529.195 261.868 522.481 275.013C522.061 276.285 521.222 277.133 520.802 278.405C503.177 313.601 500.239 356.005 515.766 395.017C567.803 367.454 622.358 340.74 675.654 316.569Z" fill="black"/>
<path d="M550.623 377.3C505.301 310.301 417.594 284.435 342.476 319.63C258.965 359.067 222.875 459.141 261.903 543.526C264.001 547.766 266.099 551.582 268.198 555.823C328.627 500.273 436.058 435.818 550.623 377.3Z" fill="#F0F0F0"/>
<path d="M443.602 435.004C406.673 371.398 345.404 337.898 300.081 359.1C285.393 365.885 274.063 377.758 266.089 393.024C265.25 394.296 264.831 395.568 263.991 396.84C242.169 441.365 239.651 494.794 261.893 543.56C263.991 547.8 266.089 551.616 268.188 555.857C309.314 518.117 371.842 476.137 443.602 435.004Z" fill="black"/>
<defs>
<linearGradient id="paint0_linear_1_35" x1="135.67" y1="767.303" x2="1494.44" y2="760.861" gradientUnits="userSpaceOnUse">
<stop stop-color="#279B53"/>
<stop offset="1" stop-color="#39E674"/>
</linearGradient>
<linearGradient id="paint1_linear_1_35" x1="321.056" y1="933.294" x2="1328.54" y2="933.294" gradientUnits="userSpaceOnUse">
<stop stop-color="#5EDF60"/>
<stop offset="1" stop-color="#84EE60"/>
</linearGradient>
</defs>
</svg>
